PathFileType	4	(x/y/z)	S05_M20_T08
DataRate	CameraRate	NumFrames	NumMarkers	Units	OrigDataRate	OrigDataStartFrame	OrigNumFrames
240	240	4	50	mm	240	260	518
Frame#	Time	Sternum			R.Acromium			L.Acromium			Top.Head			R.ASIS			L.ASIS			R.PSIS			L.PSIS			R.Great.Tro			L.Great.Tro			R.Iliac.Crest			L.Iliac.Crest			V.Sacral			R.Thigh.Upper.Post			R.Thigh.Lower.Ant			R.Thigh.Lower.Post			R.Thigh.Upper.Ant			R.Knee.Lat			R.Knee.Med			R.Shank.Upper.Post			R.Shank.Lower.Ant			R.Shank.Lower.Post			R.Shank.Upper.Ant			R.Ankle.Lat			R.Ankle.Med			R.Heel.Upper			R.Heel.Med			R.Heel.Lat			R.Toe.Lat			R.Toe.Med			R.Toe.Tip			L.Thigh.Upper.Post			L.Thigh.Lower.Ant			L.Thigh.Lower.Post			L.Thigh.Upper.Ant			L.Knee.Lat			L.Shank.Upper.Post			L.Shank.Lower.Ant			L.Shank.Lower.Post			L.Shank.Upper.Ant			L.Ankle.Lat			L.Ankle.Med			L.Heel.Upper			L.Heel.Med			L.Heel.Lat			L.Toe.Lat			L.Toe.Med			L.Toe.Tip			Cervical.Spine			Back			
		X1	Y1	Z1	X2	Y2	Z2	X3	Y3	Z3	X4	Y4	Z4	X5	Y5	Z5	X6	Y6	Z6	X7	Y7	Z7	X8	Y8	Z8	X9	Y9	Z9	X10	Y10	Z10	X11	Y11	Z11	X12	Y12	Z12	X13	Y13	Z13	X14	Y14	Z14	X15	Y15	Z15	X16	Y16	Z16	X17	Y17	Z17	X18	Y18	Z18	X19	Y19	Z19	X20	Y20	Z20	X21	Y21	Z21	X22	Y22	Z22	X23	Y23	Z23	X24	Y24	Z24	X25	Y25	Z25	X26	Y26	Z26	X27	Y27	Z27	X28	Y28	Z28	X29	Y29	Z29	X30	Y30	Z30	X31	Y31	Z31	X32	Y32	Z32	X33	Y33	Z33	X34	Y34	Z34	X35	Y35	Z35	X36	Y36	Z36	X37	Y37	Z37	X38	Y38	Z38	X39	Y39	Z39	X40	Y40	Z40	X41	Y41	Z41	X42	Y42	Z42	X43	Y43	Z43	X44	Y44	Z44	X45	Y45	Z45	X46	Y46	Z46	X47	Y47	Z47	X48	Y48	Z48	X49	Y49	Z49	X50	Y50	Z50	

260	1.0792	546.34	1269.8	326.08	458.43	1531.1	484.17	448.69	1551.2	154.84	446.27	1832.1	322.18	474.91	1015.9	455.38	486.71	1017.5	205.74	277.91	1035.1	358.08	283.5	1032.4	265.34	394.24	935.07	513.79	416.87	934.32	119.39	384.88	1101.4	488.81	399.18	1092.7	152.42	266.66	1000	324.76	470.2	705.11	492.42	518.18	640.61	428.92	457.91	619.39	464.26	525.5	726	456.69	454.84	529.31	444.19	448.04	519.66	311.96	363.93	291.09	432.64	423.17	223.01	421.14	358.52	216.09	411.34	429.92	298.81	438.89	390.71	122.83	403.95	407.39	150.6	316.11	322.65	76.639	343.36	331.09	42.99	316.78	329.24	50.319	382.54	493.61	41.119	437.01	530.14	37.794	318.48	593.35	56.595	362.42	518.91	714.7	122.88	618.91	679.18	152.25	564.96	632.63	138.36	580.79	760.83	138.29	594.2	557.9	147.68	435.55	434.07	155.44	456.5	348.28	154.15	393.78	375.92	171.92	494.89	407.05	143.22	337.73	254.45	176.95	377.23	241.15	259.98	262.56	241.21	235.46	260.87	214.1	267.82	247.63	217.35	207.43	388.23	111.29	140.64	424.59	110	254.71	478.31	84.024	196.13	400.72	1574.9	326.48	283.59	1298.8	320.29
261	1.0833	551.37	1270.2	326.46	463.31	1531.7	484.22	453.81	1551.4	154.86	451.32	1832.4	321.78	479.74	1016.1	455.91	492.03	1018	206.31	282.99	1035.4	358.09	288.75	1032.7	265.36	398.65	935.29	513.95	422.81	935.11	119.64	389.69	1101.7	489.08	404.59	1093.2	152.71	271.81	1000.4	324.74	473.12	704.96	492.57	520.86	640.1	429.27	460.33	619.34	464.41	528.74	725.42	457.07	456.6	529.19	444.32	450.02	519.58	312.02	364.77	291.34	432.63	423.69	223.06	421.14	359.12	216.37	411.32	430.78	298.84	438.93	390.98	122.97	403.89	407.71	150.72	316.05	322.73	76.821	343.32	331.13	43.128	316.72	329.27	50.525	382.54	493.67	41.074	437	530.17	37.694	318.44	593.5	56.317	362.45	526.55	716.33	123.14	626.64	681.58	153.13	573.14	634.62	138.77	587.96	762.94	139.1	602.83	559.86	148.33	446.61	432.15	155.83	469.76	346.84	154.68	406.32	372.95	172.42	506.63	406.58	143.72	353.22	250.11	177.38	393.12	237.75	260.37	278.42	234.85	235.9	277.53	207.69	268.24	264.16	210.58	207.91	407.5	108.39	141.03	443.94	108.06	255.09	498.29	83.557	196.48	405.75	1575.3	326.47	288.62	1299.2	320.48
262	1.0875	556.39	1270.6	326.85	468.18	1532.2	484.27	458.94	1551.5	154.87	456.37	1832.8	321.38	484.58	1016.2	456.42	497.36	1018.5	206.87	288.08	1035.7	358.09	294	1033	265.37	403.06	935.49	514.09	428.74	935.86	119.89	394.49	1101.9	489.35	410.01	1093.7	152.99	276.96	1000.6	324.71	476.04	704.8	492.71	523.56	639.6	429.63	462.76	619.28	464.55	531.99	724.85	457.45	458.38	529.08	444.44	452.01	519.5	312.07	365.62	291.58	432.63	424.21	223.1	421.13	359.73	216.65	411.29	431.65	298.86	438.97	391.25	123.11	403.82	408.03	150.84	315.99	322.82	77.008	343.27	331.17	43.268	316.67	329.29	50.735	382.52	493.72	41.027	437	530.19	37.594	318.4	593.65	56.043	362.48	534.05	717.88	123.41	634.21	683.87	153.99	581.15	636.51	139.19	595.01	764.94	139.89	611.27	561.74	148.96	457.63	430.15	156.21	482.99	345.38	155.19	418.89	369.91	172.93	518.29	406.06	144.19	368.8	245.74	177.81	409.16	234.33	260.76	294.48	228.42	236.36	294.41	201.22	268.68	280.9	203.76	208.43	426.89	105.58	141.38	463.44	106.24	255.42	518.37	83.246	196.74	410.79	1575.6	326.44	293.65	1299.5	320.65
263	1.0917	561.41	1270.9	327.23	473.05	1532.6	484.32	464.08	1551.6	154.88	461.43	1833.1	320.98	489.42	1016.4	456.93	502.68	1018.9	207.42	293.16	1036	358.08	299.26	1033.3	265.37	407.47	935.67	514.21	434.64	936.57	120.13	399.29	1102.1	489.6	415.43	1094.1	153.25	282.1	1000.9	324.67	478.98	704.65	492.85	526.27	639.09	429.98	465.21	619.23	464.69	535.24	724.27	457.83	460.18	528.96	444.57	454.02	519.42	312.12	366.48	291.83	432.63	424.75	223.13	421.11	360.35	216.94	411.26	432.52	298.89	439.02	391.53	123.25	403.76	408.37	150.97	315.94	322.91	77.197	343.22	331.24	43.408	316.62	329.32	50.948	382.49	493.78	40.977	436.99	530.2	37.494	318.36	593.8	55.774	362.52	541.4	719.34	123.69	641.63	686.02	154.83	589	638.3	139.63	601.93	766.82	140.67	619.54	563.53	149.56	468.61	428.06	156.59	496.21	343.91	155.67	431.47	366.81	173.46	529.89	405.48	144.63	384.49	241.36	178.25	425.34	230.91	261.13	310.72	221.93	236.85	311.51	194.73	269.14	297.84	196.89	208.97	446.39	102.88	141.68	483.08	104.52	255.68	538.52	83.102	196.91	415.82	1575.9	326.41	298.68	1299.8	320.8
